<?xml version="1.0" encoding="UTF-8"?>
<svg version="1.1" xmlns="http://www.w3.org/2000/svg" width="1024" height="1024">
<path d="M0 0 C337.92 0 675.84 0 1024 0 C1024 337.92 1024 675.84 1024 1024 C686.08 1024 348.16 1024 0 1024 C0 686.08 0 348.16 0 0 Z " fill="#31726C" transform="translate(0,0)"/>
<path d="M0 0 C0 0.66 0 1.32 0 2 C1.07314453 2.14115234 1.07314453 2.14115234 2.16796875 2.28515625 C12.59822063 4.91789569 20.3470885 15.04741467 25.71875 23.80078125 C26.1415625 24.52652344 26.564375 25.25226563 27 26 C27.75023437 25.14277344 28.50046875 24.28554687 29.2734375 23.40234375 C35.33028174 16.59163054 41.18193783 10.808172 49 6 C49.71800781 5.50371094 50.43601562 5.00742188 51.17578125 4.49609375 C68.6797058 -7.08249538 90.69167785 -11.53367312 111.24902344 -7.56591797 C132.49112321 -2.89193625 150.97623949 8.78677043 163.203125 27.04296875 C176.96409401 49.68873732 177.95394082 70.41127612 172.37890625 95.83203125 C169.56899561 106.35610652 163.92839195 116.34035178 159 126 C158.34 126 157.68 126 157 126 C156.67 127.65 156.34 129.3 156 131 C155.34 131 154.68 131 154 131 C153.88696533 131.74080811 153.77393066 132.48161621 153.6574707 133.24487305 C152.98215509 136.07477898 152.12534317 137.70902727 150.48046875 140.08203125 C149.69833008 141.22043457 149.69833008 141.22043457 148.90039062 142.38183594 C148.05250977 143.58501465 148.05250977 143.58501465 147.1875 144.8125 C146.60291016 145.65200195 146.01832031 146.49150391 145.41601562 147.35644531 C129.680338 169.8226474 111.96304315 190.06695184 92.625 209.5 C91.98328857 210.14638428 91.34157715 210.79276855 90.68041992 211.45874023 C86.85138812 215.27492128 82.90380735 218.89939594 78.8125 222.43261719 C76.56754512 224.37397095 74.37795289 226.37251943 72.1875 228.375 C67.46558792 232.63116962 62.59879092 236.67081431 57.64990234 240.65917969 C55.74128076 242.21025245 53.84917909 243.78043951 51.95703125 245.3515625 C50.53388978 246.52608482 49.11071282 247.70056413 47.6875 248.875 C47.0176709 249.43477539 46.3478418 249.99455078 45.65771484 250.57128906 C38.3447444 256.5770045 31.6501058 259.83190567 22 259 C17.01861623 256.4684771 12.93014348 253.48944199 8.75 249.8125 C7.61271255 248.82987971 6.47467995 247.84812125 5.3359375 246.8671875 C4.77487305 246.38217773 4.21380859 245.89716797 3.63574219 245.39746094 C1.25407507 243.36273518 -1.18521867 241.40190847 -3.625 239.4375 C-8.38163152 235.56711132 -12.92210461 231.49976646 -17.43359375 227.34765625 C-19.67558956 225.29675902 -21.94791029 223.29522467 -24.25 221.3125 C-27.39167839 218.58588075 -30.31661983 215.70475047 -33.23046875 212.73828125 C-35.03010481 210.97042684 -36.89601912 209.32745458 -38.8125 207.6875 C-45.79702089 201.65049163 -52.24271341 195.05485516 -58.23828125 188.0390625 C-60.19605739 185.7730777 -62.22228948 183.57856506 -64.25 181.375 C-79.44227713 164.48898927 -92.64640553 145.6410176 -104 126 C-104.40734375 125.30583984 -104.8146875 124.61167969 -105.234375 123.89648438 C-110.07320784 115.57777661 -113.90438561 107.18229619 -117 98.0625 C-117.29100586 97.21067139 -117.58201172 96.35884277 -117.88183594 95.48120117 C-124.36113345 75.30702482 -121.82447153 51.23892708 -112.2109375 32.515625 C-100.48017354 12.60604154 -83.22730465 -0.81804223 -60.875 -6.75 C-40.62416799 -11.34297221 -18.85020882 -8.70722176 0 0 Z " fill="#F77070" transform="translate(734,192)"/>
<path d="M0 0 C0.86046709 -0.0050486 1.72093418 -0.0100972 2.60747603 -0.01529878 C5.50454697 -0.03103801 8.40159542 -0.03971073 11.29869556 -0.04837227 C13.39128434 -0.05811356 15.48387129 -0.06825266 17.57645637 -0.07875645 C23.33783992 -0.10628681 29.09923175 -0.12738881 34.86064613 -0.14727235 C39.79950507 -0.16507163 44.73834591 -0.18648592 49.67719068 -0.20781206 C95.71934297 -0.40556923 141.76194528 -0.51003288 187.80443313 -0.5922576 C194.65227818 -0.60452755 201.50012234 -0.61727043 208.34796619 -0.6301899 C209.10462426 -0.63160688 209.86128233 -0.63302386 210.64086942 -0.63448378 C235.17669522 -0.68074595 259.71209671 -0.77180049 284.24768788 -0.88703606 C309.47421603 -1.00530104 334.70051326 -1.08115831 359.92731885 -1.10262599 C363.49038982 -1.1056716 367.05346018 -1.10918736 370.61653042 -1.1129818 C371.31776413 -1.1137118 372.01899784 -1.11444179 372.74148106 -1.11519391 C384.0249148 -1.12815715 395.30770496 -1.18554407 406.59088599 -1.25941676 C417.93274424 -1.33268347 429.27372504 -1.35730893 440.61587586 -1.33567022 C446.76053845 -1.32534475 452.90325505 -1.33622118 459.04759693 -1.40376854 C464.67364817 -1.46514371 470.29640925 -1.4664694 475.92257474 -1.42011203 C477.95696808 -1.4139241 479.99157265 -1.42972827 482.02558073 -1.46979927 C496.80561821 -1.74370631 496.80561821 -1.74370631 501.23208274 1.40722403 C504.74835826 4.85758663 507.05196363 8.88816954 509.47906971 13.15936089 C511.02529414 15.33562102 512.64975996 17.4275576 514.29156971 19.53436089 C514.73992176 20.12378471 515.18827381 20.71320854 515.65021229 21.3204937 C519.63255351 26.45797057 523.89053038 31.3495744 528.18927479 36.22332573 C528.71803211 36.82354546 529.24678944 37.42376518 529.79156971 38.04217339 C530.26207752 38.57213921 530.73258533 39.10210503 531.21735096 39.64813042 C532.47906971 41.15936089 532.47906971 41.15936089 534.47906971 44.15936089 C482.63337863 44.22782707 430.78768417 44.29151048 378.94196033 44.32873344 C378.17475783 44.32928567 377.40755533 44.3298379 376.61710426 44.33040686 C359.94415508 44.3423782 343.27120542 44.35345897 326.59825504 44.3636222 C318.4219705 44.3686116 310.24568609 44.37379781 302.06940174 44.37908745 C301.25575855 44.37961048 300.44211535 44.38013352 299.6038163 44.38067241 C273.22623006 44.39772104 246.84867808 44.42776869 220.47111259 44.46454977 C193.36714899 44.50227514 166.26320434 44.5269015 139.15921492 44.53502085 C135.33190369 44.53617348 131.50459253 44.53747603 127.67728138 44.53886986 C126.92400375 44.53913955 126.17072612 44.53940924 125.3946219 44.53968711 C113.26371166 44.54441594 101.13286001 44.56297345 89.00197367 44.58668902 C76.80948521 44.61023039 64.6170549 44.61923472 52.42454451 44.6133664 C45.81707876 44.61058989 39.20975158 44.61480143 32.60231304 44.63618279 C26.55585425 44.65560642 20.50968378 44.65665787 14.46321189 44.64295647 C12.27330706 44.64126233 10.08338444 44.6463717 7.89351475 44.65889362 C4.92029562 44.67490922 1.94812193 44.66631714 -1.02508068 44.6515522 C-2.30510892 44.66731428 -2.30510892 44.66731428 -3.61099631 44.68339479 C-10.82151462 44.602292 -15.94772103 42.446658 -21.33343029 37.65936089 C-26.68402987 31.54438994 -28.02147283 27.2738964 -27.92327404 19.11248589 C-27.11090718 13.14987089 -24.08181465 8.33087102 -19.51702404 4.46014214 C-13.24805297 0.30858444 -7.40653473 0.01009462 0 0 Z " fill="#255A54" transform="translate(143.52093029022217,337.8406391143799)"/>
<path d="M0 0 C1.2226793 -0.00346153 1.2226793 -0.00346153 2.47005919 -0.006993 C5.20081287 -0.01228585 7.93133061 -0.00331481 10.66207218 0.00558662 C12.6397687 0.00471441 14.617465 0.00296314 16.59516007 0.00040829 C22.02932647 -0.00406615 27.46341412 0.00393983 32.89757049 0.01396441 C38.75776122 0.02259518 44.61794744 0.01967902 50.47814274 0.01815987 C60.63121373 0.01711078 70.78425904 0.02338988 80.93732357 0.03463554 C91.58511826 0.04642151 102.23290017 0.05416792 112.88070202 0.05634117 C113.5428946 0.05647865 114.20508719 0.05661613 114.88734621 0.05675778 C118.25032496 0.05743445 121.61330372 0.05803721 124.97628248 0.05861153 C148.79261897 0.06281169 172.60894208 0.07628459 196.42527103 0.09521675 C219.56166354 0.11358718 242.69805238 0.12775365 265.83445072 0.13623238 C266.90430779 0.13662695 266.90430779 0.13662695 267.99577812 0.1370295 C275.15844592 0.13966656 282.32111375 0.14221818 289.4837816 0.14470722 C304.07479768 0.14977957 318.66581353 0.15542207 333.25682926 0.16140938 C333.92769194 0.16168396 334.59855461 0.16195854 335.28974646 0.16224144 C380.08435728 0.18064095 424.87896046 0.21237275 469.67356205 0.24609566 C469.69749027 0.79733101 469.7214185 1.34856636 469.74607182 1.91650581 C470.50002277 16.93669506 473.51432448 30.13758108 478.67356205 44.24609566 C432.16673964 44.31456547 385.65991306 44.37824841 339.15305424 44.41546822 C338.12066843 44.41629656 338.12066843 44.41629656 337.06742635 44.41714163 C322.10993636 44.42911312 307.15244584 44.44019387 292.19495451 44.45035698 C284.85986133 44.45534634 277.5247683 44.46053256 270.18967533 44.46582222 C269.09477732 44.46660677 269.09477732 44.46660677 267.97776017 44.46740718 C244.31627315 44.4844542 220.65482432 44.51450065 196.99336044 44.55128454 C172.67921914 44.58901445 148.36509897 44.61363732 124.05092888 44.62175562 C120.61714631 44.62290825 117.18336382 44.62421079 113.74958134 44.62560463 C113.07376014 44.62587432 112.39793894 44.62614401 111.7016383 44.62642188 C100.82042062 44.63114974 89.93926828 44.64970462 79.05807725 44.67342379 C68.12022341 44.69697164 57.1824248 44.70564391 46.24454516 44.70010117 C40.31754894 44.697534 34.3907446 44.70152592 28.46378231 44.72291756 C23.03905513 44.7423539 17.61464926 44.74338442 12.18990743 44.72969124 C10.2261108 44.72799834 8.26229428 44.73309706 6.2985369 44.74562839 C3.63024432 44.76166725 0.96311351 44.75303832 -1.70516109 44.73828697 C-2.46866991 44.74879503 -3.23217872 44.75930308 -4.01882416 44.77012956 C-10.91892539 44.68385256 -16.00381531 42.31064912 -21.13893795 37.74609566 C-26.59863091 31.50644656 -27.71748527 27.35873524 -27.5959692 19.06250191 C-27.09336541 13.81065656 -25.29900542 10.16731647 -21.5256567 6.49218941 C-14.95846311 1.20017904 -8.3455509 -0.05858177 0 0 Z " fill="#255A54" transform="translate(143.32643795013428,257.75390434265137)"/>
<path d="M0 0 C4.70555003 3.81345617 7.9084505 7.66268866 9.125 13.70703125 C9.22271552 15.47094088 9.26833819 17.23805611 9.27890015 19.00463867 C9.28750061 20.07822128 9.29610107 21.15180389 9.30496216 22.25791931 C9.31135208 24.01743675 9.31135208 24.01743675 9.31787109 25.8125 C9.33013733 27.67177879 9.33013733 27.67177879 9.34265137 29.56861877 C9.3674944 33.67725302 9.38417902 37.78585045 9.3984375 41.89453125 C9.40380053 43.31327317 9.40917804 44.73201503 9.41456985 46.15075684 C9.43619543 52.05794392 9.4549271 57.96512834 9.46619225 63.87234497 C9.48239807 72.31267709 9.5154968 80.75254646 9.57259309 89.1927042 C9.61144156 95.14026911 9.63084277 101.08771107 9.63611281 107.03539944 C9.63974761 110.58056302 9.65156556 114.12523247 9.68421555 117.67025757 C9.72021407 121.63577426 9.71588759 125.60072253 9.70849609 129.56640625 C9.72490143 130.72322403 9.74130676 131.88004181 9.75820923 133.07191467 C9.68026701 143.34250004 6.90127628 151.87640881 0.125 159.70703125 C-1.91796875 161.40234375 -1.91796875 161.40234375 -4.0625 162.83203125 C-4.75730469 163.30898438 -5.45210937 163.7859375 -6.16796875 164.27734375 C-12.91442097 167.8404051 -19.31719692 169.15465735 -26.89208984 169.11108398 C-27.74380264 169.11794724 -28.59551544 169.12481049 -29.47303772 169.13188171 C-32.26084539 169.15003443 -35.04808399 169.14632843 -37.8359375 169.140625 C-39.79212626 169.14519266 -41.74831343 169.15049997 -43.70449829 169.1565094 C-47.79460183 169.16541816 -51.88450989 169.16304327 -55.97460938 169.15307617 C-61.1917909 169.14159555 -66.40829464 169.16179572 -71.62538719 169.19099331 C-75.66283387 169.20942331 -79.70012019 169.20904923 -83.73759842 169.20335579 C-85.65994848 169.20320337 -87.58230996 169.20918114 -89.5046196 169.22164726 C-102.74862596 169.2954392 -114.15283201 169.14668527 -124.23046875 159.41796875 C-124.77316406 158.85335937 -125.31585938 158.28875 -125.875 157.70703125 C-126.98875 156.56234375 -126.98875 156.56234375 -128.125 155.39453125 C-134.51442862 145.58219445 -135.02420621 135.57597903 -135.03613281 124.22314453 C-135.04109772 123.08565765 -135.04606262 121.94817078 -135.05117798 120.7762146 C-135.06574081 117.02658476 -135.07259098 113.27699719 -135.078125 109.52734375 C-135.08388025 106.9133199 -135.08963794 104.29929606 -135.09539795 101.68527222 C-135.10495104 96.90832882 -135.11085939 92.13139448 -135.1138947 87.35444272 C-135.11837504 80.34421531 -135.13593219 73.33418292 -135.1648953 66.32401478 C-135.18918606 60.23127638 -135.19684225 54.13861803 -135.19857025 48.04583359 C-135.20159159 45.46313285 -135.20960253 42.88043284 -135.22275543 40.29776382 C-135.23986086 36.68159543 -135.23792463 33.06589977 -135.23144531 29.44970703 C-135.2406601 28.38967468 -135.24987488 27.32964233 -135.2593689 26.23748779 C-135.21743174 18.74393306 -134.03613099 12.5106218 -130.3125 5.95703125 C-124.73672555 0.81016252 -117.95991706 -2.02954291 -110.38671875 -2.421875 C-103.51932726 -2.06942723 -97.3041845 0.02768986 -92.34375 4.89453125 C-86.26059109 12.4014082 -86.3658158 21.04393064 -86.28955078 30.30688477 C-86.20102479 35.7452653 -85.92746449 39.65456676 -81.875 43.70703125 C-79.1828144 43.82050086 -76.51726645 43.87121424 -73.82421875 43.875 C-72.60869072 43.8799926 -72.60869072 43.8799926 -71.36860657 43.88508606 C-69.64947071 43.89015982 -67.93032497 43.89249425 -66.21118164 43.89233398 C-63.5839807 43.89451343 -60.95720429 43.9126446 -58.33007812 43.93164062 C-56.66145977 43.93457588 -54.99283942 43.93655979 -53.32421875 43.9375 C-52.53867111 43.94468552 -51.75312347 43.95187103 -50.94377136 43.95927429 C-45.55530754 44.01355495 -45.55530754 44.01355495 -40.875 41.70703125 C-38.77063839 38.64969624 -38.63512084 36.07080055 -38.63671875 32.41796875 C-38.62060547 31.39316406 -38.60449219 30.36835937 -38.58789062 29.3125 C-38.57114822 27.18235109 -38.56568279 25.05207953 -38.57226562 22.921875 C-38.40977499 14.52477809 -36.74424277 7.47187624 -30.55859375 1.453125 C-29.81738281 1.02128906 -29.07617188 0.58945312 -28.3125 0.14453125 C-27.56871094 -0.31050781 -26.82492187 -0.76554688 -26.05859375 -1.234375 C-18.48536555 -4.90583268 -6.97719976 -4.81136067 0 0 Z " fill="#FDFDFD" transform="translate(528.875,517.29296875)"/>
<path d="M0 0 C1.03029629 -0.00307895 1.03029629 -0.00307895 2.08140665 -0.0062201 C4.38793654 -0.0118842 6.69440661 -0.01043358 9.00094223 -0.00901413 C10.66938812 -0.0115981 12.33783339 -0.01461135 14.0062778 -0.01801753 C18.59524603 -0.02608696 23.18419861 -0.02787707 27.77317309 -0.028615 C32.72081977 -0.03046563 37.66845833 -0.03801299 42.61610031 -0.04475021 C53.43631027 -0.05833331 64.25651652 -0.06435812 75.07673359 -0.06876087 C81.83199581 -0.07152314 88.5872566 -0.07576045 95.34251785 -0.08026505 C114.04352478 -0.09245732 132.74453056 -0.10275695 151.44554138 -0.10614014 C152.64248428 -0.1063597 153.83942717 -0.10657927 155.07264106 -0.10680549 C156.27245536 -0.10702377 157.47226966 -0.10724204 158.70844197 -0.10746694 C161.13974333 -0.1079104 163.57104468 -0.10835697 166.00234604 -0.10880661 C167.20835672 -0.10902804 168.4143674 -0.10924947 169.65692386 -0.10947761 C189.20208586 -0.1134263 208.74721059 -0.13088268 228.29235819 -0.15416613 C248.3559316 -0.1778744 268.4194863 -0.19034174 288.48307395 -0.19150805 C299.74932748 -0.19242507 311.01553245 -0.19818416 322.28177261 -0.21632767 C331.8744278 -0.2317215 341.46701941 -0.23685331 351.0596846 -0.22858956 C355.95392623 -0.22468064 360.8480398 -0.2256246 365.7422657 -0.23964691 C370.22433639 -0.25237096 374.70618258 -0.25120144 379.1882529 -0.2390562 C380.80803965 -0.23709662 382.42784222 -0.24018967 384.04760674 -0.24890056 C393.76510334 -0.29784342 402.09366015 -0.16465129 410.39736557 5.31892776 C415.18875104 10.33316837 417.30174046 14.70107113 417.52236557 21.69392776 C417.24382316 28.63827826 415.15330022 34.19295298 410.08486557 39.13142776 C401.74055109 45.04552193 393.17743957 44.83661805 383.40893173 44.75961685 C381.71895172 44.76466718 380.02897708 44.77189975 378.33901465 44.781115 C373.71362795 44.79999477 369.088772 44.78782775 364.46339893 44.77039206 C359.46811862 44.75699845 354.47291495 44.77246221 349.47764206 44.78421402 C339.69980714 44.80257925 329.92217225 44.79408606 320.1443436 44.7761258 C312.19793489 44.76209359 304.25158043 44.75820834 296.30516052 44.76156807 C294.60797343 44.76228423 294.60797343 44.76228423 292.87649972 44.76301486 C290.5779079 44.7640412 288.27931609 44.76509656 285.98072429 44.76618063 C265.66253347 44.77474523 245.34443916 44.75807957 225.02627182 44.72835159 C205.31171236 44.69950718 185.59729191 44.69243459 165.88271713 44.70784378 C144.41023962 44.724604 122.93782807 44.72864255 101.46534884 44.71113342 C99.17587893 44.70928904 96.88640901 44.70745431 94.59693909 44.70562935 C93.47049356 44.70471726 92.34404804 44.70380517 91.1834678 44.70286544 C83.24569583 44.69725953 75.30795607 44.70056767 67.37018585 44.7071743 C57.6981691 44.71490485 48.02628918 44.70816462 38.35430001 44.68299926 C33.41962179 44.67049873 28.48515667 44.66436455 23.55047035 44.67554092 C19.03279269 44.68557969 14.51554008 44.67713139 9.99791415 44.65395974 C8.36417213 44.64879944 6.73039205 44.65036414 5.09666662 44.6593544 C-4.83433176 44.70945545 -11.99974241 44.50066512 -19.72763443 37.63142776 C-25.07823401 31.51645681 -26.41567697 27.24596328 -26.31747818 19.08455276 C-25.50511132 13.12193776 -22.47601879 8.3029379 -17.91122818 4.43220901 C-12.09666678 0.58157917 -6.92634315 0.00705644 0 0 Z " fill="#255A54" transform="translate(141.91513442993164,417.8685722351074)"/>
<path d="M0 0 C1.1882991 -0.00379669 2.37659821 -0.00759338 3.60090637 -0.01150513 C6.83034268 -0.01760477 10.05909011 -0.00600511 13.28844881 0.01440096 C16.68393992 0.03210749 20.07941719 0.02844429 23.47494507 0.02767944 C29.17235588 0.02954609 34.86955223 0.04682538 40.56689453 0.07421875 C47.13691739 0.10569298 53.70670603 0.11621349 60.27679884 0.11474764 C67.29951816 0.11339288 74.32214826 0.12729227 81.34484053 0.14564085 C83.3570296 0.14988606 85.36920411 0.1513208 87.38139725 0.15211868 C91.14110141 0.15646587 94.90051483 0.17399711 98.66015625 0.1953125 C99.76582443 0.19440613 100.87149261 0.19349976 102.01066589 0.19256592 C111.18061055 0.26839757 118.16959554 1.02006959 125.00146484 7.58349609 C130.13170717 13.32700877 130.18229606 18.94383694 129.98583984 26.39208984 C129.37560019 33.01277213 126.85285834 37.17239122 121.70068359 41.48583984 C115.46163463 45.05101068 110.3092858 45.65194352 103.21630859 45.80224609 C102.40071472 45.82302719 101.58512085 45.84380829 100.74481201 45.86521912 C98.14685255 45.93045281 95.54879446 45.98947752 92.95068359 46.04833984 C91.1863506 46.09154998 89.42202747 46.13516507 87.65771484 46.17919922 C83.33880476 46.28610729 79.01979575 46.38744812 74.70068359 46.48583984 C73.30145834 51.46854228 74.61693627 54.83186722 76.70068359 59.48583984 C79.84797203 64.16181124 83.28711123 66.72415462 88.12646484 69.40771484 C88.64595703 69.76349609 89.16544922 70.11927734 89.70068359 70.48583984 C89.70068359 71.14583984 89.70068359 71.80583984 89.70068359 72.48583984 C90.35939453 72.54642578 91.01810547 72.60701172 91.69677734 72.66943359 C95.94068621 73.82284966 99.13671256 76.11153265 102.76318359 78.54833984 C103.51398193 79.04495117 104.26478027 79.5415625 105.03833008 80.05322266 C106.55421155 81.0570148 108.06799718 82.06397972 109.57958984 83.07421875 C111.44357984 84.31473327 113.31754298 85.53641693 115.20068359 86.74755859 C133.06017461 98.34255977 133.06017461 98.34255977 135.70068359 109.48583984 C136.4720862 115.50632684 136.22655051 120.36764593 132.70068359 125.48583984 C127.73200686 131.58495626 122.92040546 134.94402661 115.02880859 135.76318359 C102.58663158 136.19281678 96.16160564 130.73036081 87.31152344 122.89501953 C84.99015256 120.8642598 82.59861886 118.92519187 80.20068359 116.98583984 C77.22294217 114.56969001 74.27368313 112.12981634 71.37255859 109.62255859 C70.8034375 109.13271484 70.23431641 108.64287109 69.64794922 108.13818359 C68.55383207 107.19389376 67.46366136 106.24500228 66.37841797 105.29052734 C62.07286458 101.58129584 57.52737168 98.11399275 51.88818359 96.86083984 C41.77268327 98.84427128 33.87268896 107.42738807 26.37744141 114.02246094 C22.24761633 117.62673751 17.98029434 121.06215125 13.70068359 124.48583984 C13.16523926 124.91703125 12.62979492 125.34822266 12.078125 125.79248047 C10.37617761 127.15794529 8.66491004 128.51083419 6.95068359 129.86083984 C5.92458984 130.67294922 4.89849609 131.48505859 3.84130859 132.32177734 C-4.29393561 137.92740582 -11.65340706 138.42378462 -21.29931641 137.48583984 C-27.00566742 135.86920077 -31.07194542 131.28777667 -34.29931641 126.48583984 C-37.76455409 119.98526239 -38.39181214 113.55630118 -36.36181641 106.48583984 C-32.09809883 96.5947833 -20.74614662 91.53583626 -11.95166016 86.29052734 C-2.5509578 80.66916798 6.61483548 74.65014095 15.06396484 67.66552734 C16.70068359 66.48583984 16.70068359 66.48583984 18.70068359 66.48583984 C18.94818359 65.94958984 19.19568359 65.41333984 19.45068359 64.86083984 C20.70068359 62.48583984 20.70068359 62.48583984 22.76318359 59.79833984 C25.13398902 55.74502735 25.74987452 52.15897821 25.70068359 47.48583984 C23.65712069 45.44227694 19.38591023 46.30055566 16.57177734 46.27490234 C14.87971082 46.24680734 13.18765367 46.21814274 11.49560547 46.18896484 C8.82528204 46.14788671 6.15512875 46.11100822 3.48461914 46.08447266 C0.90913384 46.05665291 -1.66555141 46.01075371 -4.24072266 45.96240234 C-5.42088707 45.95752304 -5.42088707 45.95752304 -6.62489319 45.95254517 C-12.70774696 45.81941812 -18.34774577 44.77635144 -23.28759766 40.94287109 C-28.29880387 34.7195147 -30.90488276 28.81014635 -30.58447266 20.71630859 C-29.79065252 14.50711273 -27.25915002 8.49391908 -22.29931641 4.48583984 C-15.01719678 0.46857629 -8.17402518 -0.08339355 0 0 Z " fill="#FDFDFD" transform="translate(199.29931640625,548.51416015625)"/>
<path d="M0 0 C1.48940346 -0.0076664 1.48940346 -0.0076664 3.00889587 -0.01548767 C6.27096689 -0.02931795 9.53282513 -0.02843211 12.79492188 -0.02612305 C15.07360919 -0.030013 17.35229578 -0.03434829 19.63098145 -0.03910828 C24.3987056 -0.04655595 29.16635567 -0.0462893 33.93408203 -0.04101562 C40.0336795 -0.03521685 46.13297372 -0.05216915 52.23252106 -0.0753603 C56.93550377 -0.09011301 61.63841365 -0.09096733 66.34141541 -0.08785057 C68.59000754 -0.0883628 70.83860386 -0.09358209 73.08717346 -0.10366249 C76.23409596 -0.11604191 79.38043019 -0.10922631 82.52734375 -0.09765625 C83.44913925 -0.10529999 84.37093475 -0.11294373 85.32066345 -0.12081909 C91.91692018 -0.06739739 97.76083946 0.77404166 103.00585938 5.1418457 C108.20689226 11.53737418 110.81673708 16.90362237 110.76367188 25.2746582 C109.88033067 32.16261644 107.46842526 36.35367553 102.18945312 40.80200195 C94.36765516 45.55050088 87.06496467 45.70447211 78.13750839 45.68534851 C75.84140452 45.68083057 73.54605522 45.69497913 71.25003052 45.71374512 C65.55295501 45.75654051 59.85589945 45.76776957 54.15869141 45.77996826 C49.33035224 45.79151988 44.50236125 45.81513382 39.67416763 45.85466003 C37.41957966 45.86817608 35.16547035 45.86407095 32.91085815 45.85925293 C31.52178343 45.86859684 30.13271394 45.87876649 28.74365234 45.88989258 C26.93451859 45.89297424 26.93451859 45.89297424 25.08883667 45.89611816 C20.11450922 46.46240051 16.85552322 48.06149004 13.51367188 51.7746582 C9.42511984 57.61544683 9.42856744 61.09334562 9.45117188 68.0871582 C9.43505859 69.07264648 9.41894531 70.05813477 9.40234375 71.07348633 C9.39860695 76.6375824 9.79118885 80.40417811 12.76367188 85.2746582 C12.76367188 85.9346582 12.76367188 86.5946582 12.76367188 87.2746582 C13.50617187 87.5634082 14.24867188 87.8521582 15.01367188 88.1496582 C17.76367188 89.2746582 17.76367188 89.2746582 19.49153137 90.32901001 C22.67536352 91.65409757 25.42404283 91.52663855 28.86791992 91.5300293 C29.57581161 91.53364975 30.28370331 91.5372702 31.01304626 91.54100037 C32.5473521 91.54788238 34.08168236 91.55040204 35.61600304 91.54905319 C38.05112001 91.54808548 40.48579851 91.56106083 42.92085266 91.57803345 C49.84327763 91.62421813 56.76565866 91.64888784 63.68823242 91.65551758 C67.92704585 91.66055527 72.16540363 91.68492258 76.40406227 91.72084427 C78.01263495 91.73059383 79.62127072 91.73300085 81.22986412 91.72767258 C91.28517603 91.69594133 99.91406799 91.74133284 107.63867188 98.9621582 C112.12823778 105.96059917 114.06242206 113.08511905 112.33007812 121.34106445 C110.3862721 127.70370903 106.4648144 131.16322417 100.79004765 134.40057468 C94.79428089 137.29121715 89.73961017 137.84381222 83.13842773 137.77636719 C82.11608536 137.78177017 81.09374298 137.78717316 80.04042053 137.79273987 C76.68615097 137.80517113 73.33274908 137.78877396 69.97851562 137.77075195 C67.63399714 137.77090706 65.28947841 137.77239795 62.94496155 137.77516174 C58.04188643 137.77654319 53.13910474 137.76402881 48.23608398 137.74121094 C41.96272741 137.71281181 35.68985748 137.71557152 29.41646481 137.72830105 C24.5787798 137.73526724 19.74120657 137.72745837 14.90353584 137.71504402 C12.59075919 137.71053981 10.2779705 137.71018368 7.96519279 137.71410942 C4.72972012 137.7170312 1.49491023 137.70046824 -1.74047852 137.67871094 C-2.68875519 137.68321259 -3.63703186 137.68771423 -4.61404419 137.69235229 C-14.84639508 137.57846458 -23.73585544 133.83611174 -30.99804688 126.4934082 C-39.76509626 115.71678326 -39.83795544 103.8454442 -39.76757812 90.6496582 C-39.77027889 88.85326936 -39.77416615 87.05688194 -39.7791748 85.26049805 C-39.7850424 81.51182007 -39.77659598 77.76352565 -39.7578125 74.01489258 C-39.73502451 69.2371466 -39.74816241 64.46029976 -39.77210236 59.68258667 C-39.78663489 55.97795984 -39.7819204 52.27354221 -39.77159119 48.56890869 C-39.76894444 46.80845022 -39.77212044 45.04797205 -39.7815094 43.28753662 C-39.83631655 30.12656494 -39.03808395 19.1668085 -29.44335938 9.21606445 C-20.79387692 1.60758166 -11.16607252 -0.03000993 0 0 Z " fill="#FDFEFE" transform="translate(742.236328125,548.725341796875)"/>
<path d="M0 0 C4.81438512 3.99087187 7.51377807 8.94535794 9 15 C9.44194835 20.09461472 9.41081522 25.17652544 9.38818359 30.28515625 C9.39225368 31.82999034 9.397598 33.37482151 9.40411377 34.91964722 C9.4177413 39.09733654 9.41250768 43.27480256 9.40297651 47.45249557 C9.39535619 51.83430309 9.4024321 56.21609209 9.40713501 60.59790039 C9.41258566 67.95495011 9.40541909 75.31190934 9.39111328 82.66894531 C9.37478808 91.16231952 9.38007708 99.65547765 9.3965925 108.14884663 C9.41022706 115.4543991 9.41211741 122.75988671 9.40427649 130.06544781 C9.39961079 134.42290982 9.39894467 138.78027042 9.40888596 143.13772583 C9.41758208 147.23527211 9.41148569 151.33254106 9.39420319 155.43005753 C9.39025242 156.92960272 9.39134812 158.42917144 9.39799118 159.92870712 C9.43947375 170.24762912 8.99579436 178.63013793 1.65625 186.52734375 C-3.5040212 191.11560375 -10.30779777 192.14004609 -17 192 C-24.55634188 190.92542188 -30.06716993 187.79077477 -35 182 C-39.71104365 174.07256471 -39.57197056 165.75614767 -39.51757812 156.79492188 C-39.52300836 155.28259104 -39.53013606 153.77026549 -39.53881836 152.25794983 C-39.5569477 148.1772885 -39.55002758 144.09703479 -39.53730202 140.01636696 C-39.52712012 135.73026112 -39.53658203 131.44418838 -39.54284668 127.15808105 C-39.55010806 119.96258326 -39.54057518 112.7672501 -39.52148438 105.57177734 C-39.49971849 97.27260947 -39.50677093 88.97383477 -39.52879 80.67467642 C-39.54698719 73.52784679 -39.54948128 66.38113498 -39.53903532 59.23428965 C-39.53282405 54.97513295 -39.53189913 50.71616058 -39.54518127 46.45701599 C-39.55680234 42.45128058 -39.54860112 38.44604825 -39.52560425 34.44036674 C-39.52035032 32.97713999 -39.52177359 31.51387032 -39.53065491 30.05066109 C-39.58383273 20.3934605 -38.86739954 12.32354592 -33.0703125 4.34375 C-24.13992202 -4.1203952 -11.19424937 -6.26344905 0 0 Z " fill="#FCFDFD" transform="translate(618,540)"/>
<path d="M0 0 C0.65143927 -0.00297112 1.30287854 -0.00594224 1.97405839 -0.0090034 C4.14322098 -0.01763134 6.312328 -0.0191936 8.48150635 -0.02069092 C10.042502 -0.02532327 11.60349652 -0.03034849 13.16448975 -0.03573608 C17.39607548 -0.0488216 21.62764537 -0.05529746 25.85924816 -0.05974674 C28.50634916 -0.06268358 31.1534459 -0.06678952 33.80054474 -0.07125092 C42.09257033 -0.08491547 50.38458609 -0.09458732 58.67662215 -0.09845281 C68.2303699 -0.10293168 77.78397445 -0.12047602 87.33767867 -0.1494534 C94.73492528 -0.17110697 102.1321317 -0.18115904 109.52940965 -0.18249393 C113.94175879 -0.18353928 118.35397314 -0.18938964 122.76628876 -0.20731354 C126.91959645 -0.22385803 131.07266891 -0.22591898 135.22599792 -0.21717453 C136.74406314 -0.21640757 138.26214134 -0.22070157 139.78017426 -0.23063278 C158.81436975 -0.34778253 158.81436975 -0.34778253 166.14654541 5.39044189 C171.65604612 12.52038399 174.3162915 19.08100081 173.27154541 28.14044189 C171.39939569 34.35462561 167.67808766 38.67272155 162.27154541 42.14044189 C154.05853424 45.82896665 145.4182247 45.5674358 136.60748291 45.52862549 C135.04589472 45.53269778 133.48430941 45.53804334 131.92272949 45.54455566 C127.70783585 45.55815693 123.49316411 45.55296055 119.27826691 45.54341841 C114.85202977 45.53578434 110.4258107 45.54287778 105.99957275 45.5475769 C98.5687115 45.55302359 91.13793991 45.54587146 83.70709229 45.53155518 C75.13532767 45.51523075 66.56377718 45.52052003 57.99201775 45.53703439 C50.6116599 45.55068032 43.23136623 45.55255377 35.85099983 45.54471838 C31.45214456 45.54005891 27.0533897 45.53936926 22.65454102 45.54932785 C18.51756597 45.55804061 14.38086504 45.55189757 10.24391937 45.53464508 C8.73231205 45.53070313 7.22068136 45.53177466 5.70908356 45.53843307 C-4.73515455 45.58017149 -15.27513992 45.57446658 -23.25579834 37.93341064 C-27.51347633 32.74965946 -29.42076172 27.01776309 -29.03704834 20.33184814 C-28.02108368 13.11721304 -25.40588396 9.11775745 -19.71282959 4.54669189 C-13.76804921 0.33385541 -7.10695185 0.01820322 0 0 Z " fill="#FBFCFC" transform="translate(705.7284545898438,719.8595581054688)"/>
<path d="M0 0 C0.65143927 -0.00297112 1.30287854 -0.00594224 1.97405839 -0.0090034 C4.14322098 -0.01763134 6.312328 -0.0191936 8.48150635 -0.02069092 C10.042502 -0.02532327 11.60349652 -0.03034849 13.16448975 -0.03573608 C17.39607548 -0.0488216 21.62764537 -0.05529746 25.85924816 -0.05974674 C28.50634916 -0.06268358 31.1534459 -0.06678952 33.80054474 -0.07125092 C42.09257033 -0.08491547 50.38458609 -0.09458732 58.67662215 -0.09845281 C68.2303699 -0.10293168 77.78397445 -0.12047602 87.33767867 -0.1494534 C94.73492528 -0.17110697 102.1321317 -0.18115904 109.52940965 -0.18249393 C113.94175879 -0.18353928 118.35397314 -0.18938964 122.76628876 -0.20731354 C126.91959645 -0.22385803 131.07266891 -0.22591898 135.22599792 -0.21717453 C136.74406314 -0.21640757 138.26214134 -0.22070157 139.78017426 -0.23063278 C158.81436975 -0.34778253 158.81436975 -0.34778253 166.14654541 5.39044189 C171.65604612 12.52038399 174.3162915 19.08100081 173.27154541 28.14044189 C171.39939569 34.35462561 167.67808766 38.67272155 162.27154541 42.14044189 C154.05853424 45.82896665 145.4182247 45.5674358 136.60748291 45.52862549 C135.04589472 45.53269778 133.48430941 45.53804334 131.92272949 45.54455566 C127.70783585 45.55815693 123.49316411 45.55296055 119.27826691 45.54341841 C114.85202977 45.53578434 110.4258107 45.54287778 105.99957275 45.5475769 C98.5687115 45.55302359 91.13793991 45.54587146 83.70709229 45.53155518 C75.13532767 45.51523075 66.56377718 45.52052003 57.99201775 45.53703439 C50.6116599 45.55068032 43.23136623 45.55255377 35.85099983 45.54471838 C31.45214456 45.54005891 27.0533897 45.53936926 22.65454102 45.54932785 C18.51756597 45.55804061 14.38086504 45.55189757 10.24391937 45.53464508 C8.73231205 45.53070313 7.22068136 45.53177466 5.70908356 45.53843307 C-4.73515455 45.58017149 -15.27513992 45.57446658 -23.25579834 37.93341064 C-27.51347633 32.74965946 -29.42076172 27.01776309 -29.03704834 20.33184814 C-28.02108368 13.11721304 -25.40588396 9.11775745 -19.71282959 4.54669189 C-13.76804921 0.33385541 -7.10695185 0.01820322 0 0 Z " fill="#FBFCFC" transform="translate(173.72845458984375,719.8595581054688)"/>
<path d="M0 0 C1.89237774 -0.01655567 3.78469305 -0.04384069 5.67675781 -0.08203125 C8.40682369 -0.13684706 11.13542445 -0.15868052 13.8659668 -0.17333984 C15.13027275 -0.2073439 15.13027275 -0.2073439 16.42012024 -0.24203491 C20.68197976 -0.22673705 22.5222532 -0.02085662 26.06982422 2.55102539 C28.21626844 5.60994186 28.65672717 6.97535552 28.62768555 10.65869141 C28.62510742 11.65320313 28.6225293 12.64771484 28.61987305 13.67236328 C28.57733398 15.2144043 28.57733398 15.2144043 28.53393555 16.78759766 C28.53780273 18.32383789 28.53780273 18.32383789 28.54174805 19.89111328 C28.4714629 25.32064097 28.38304835 29.8332021 25.03393555 34.35009766 C20.78003722 36.63335285 16.56734313 36.68725303 11.84643555 36.72119141 C11.06631104 36.73021988 10.28618652 36.73924835 9.48242188 36.74855042 C7.8384991 36.763011 6.19451931 36.7719292 4.55053711 36.77563477 C2.04141464 36.7875621 -0.46527059 36.83680873 -2.97387695 36.88720703 C-4.57542751 36.89666903 -6.17699309 36.90390513 -7.77856445 36.90869141 C-8.52452881 36.92822372 -9.27049316 36.94775604 -10.0390625 36.96788025 C-13.88293157 36.93470648 -15.80387418 36.46766 -18.94287109 34.19238281 C-21.2899211 30.89512733 -21.57658888 29.31982297 -21.5246582 25.31494141 C-21.51756836 24.17605469 -21.51047852 23.03716797 -21.50317383 21.86376953 C-21.47030273 20.68363281 -21.43743164 19.50349609 -21.40356445 18.28759766 C-21.39776367 17.10359375 -21.39196289 15.91958984 -21.38598633 14.69970703 C-21.24654948 4.8554654 -21.24654948 4.8554654 -18.96606445 1.35009766 C-13.83425329 -1.21580793 -5.71328279 0.03665854 0 0 Z " fill="#31726C" transform="translate(462.966064453125,604.64990234375)"/>
</svg>
